<?xml version="1.0" standalone="no"?>
<!DOCTYPE svg PUBLIC "-//W3C//DTD SVG 20010904//EN"
 "http://www.w3.org/TR/2001/REC-SVG-20010904/DTD/svg10.dtd">
<svg version="1.0" xmlns="http://www.w3.org/2000/svg"
 width="900.000000pt" height="219.000000pt" viewBox="0 0 900.000000 219.000000"
 preserveAspectRatio="xMidYMid meet">
<metadata>
Created by potrace 1.10, written by Peter Selinger 2001-2011
</metadata>
<g transform="translate(0.000000,219.000000) scale(0.100000,-0.100000)"
fill="#fd006a" stroke="none">
<path d="M1449 2103 c-13 -21 -26 -40 -29 -43 -3 -3 -27 -49 -53 -102 -59
-121 -77 -222 -58 -324 17 -93 54 -147 156 -229 86 -70 97 -79 174 -146 102
-89 175 -168 249 -266 62 -84 137 -227 154 -292 21 -82 27 -119 28 -170 0 -46
2 -52 15 -41 28 23 99 140 129 210 23 57 45 175 40 217 -16 123 -29 190 -41
208 -7 11 -13 27 -13 36 0 19 -28 75 -47 97 -7 7 -13 18 -13 23 0 13 -82 132
-124 180 -17 19 -46 53 -65 75 -18 21 -68 77 -111 124 -209 230 -350 413 -350
454 0 30 -19 25 -41 -11z"/>
<path d="M8377 1669 c-62 -7 -94 -17 -166 -52 -36 -18 -109 -104 -116 -137 -4
-16 -11 -32 -16 -35 -5 -4 -9 -39 -9 -78 0 -59 5 -82 29 -129 46 -91 109 -140
226 -178 39 -12 79 -26 90 -30 11 -5 38 -12 60 -15 22 -4 45 -10 50 -15 6 -4
28 -10 50 -13 95 -15 175 -82 175 -146 0 -59 -40 -115 -107 -151 -56 -30 -208
-29 -271 3 -54 27 -90 68 -119 139 l-21 53 -94 -4 c-51 -1 -97 -5 -101 -8 -18
-11 8 -110 50 -188 20 -37 130 -145 149 -145 3 0 20 -6 37 -14 35 -15 234 -49
246 -42 4 3 48 10 97 16 49 6 100 15 114 21 111 48 158 88 202 171 20 38 23
57 22 158 0 108 -2 118 -27 158 -35 55 -86 102 -134 125 -21 10 -51 25 -66 33
-16 8 -34 14 -42 14 -7 0 -37 7 -66 16 -30 8 -79 22 -109 30 -80 23 -161 55
-191 75 -69 48 -56 137 27 179 38 18 61 22 145 22 83 0 105 -4 134 -22 35 -22
75 -76 75 -102 0 -34 26 -40 129 -33 l101 8 -6 41 c-11 70 -51 142 -107 191
-28 25 -56 45 -62 45 -5 0 -23 7 -40 16 -55 29 -204 39 -338 23z"/>
<path d="M573 1662 l-113 -3 -5 -27 c-4 -15 -12 -40 -19 -57 -8 -16 -21 -50
-31 -75 -9 -25 -23 -58 -31 -73 -8 -16 -14 -33 -14 -39 0 -5 -6 -24 -14 -41
-14 -34 -30 -75 -67 -172 -13 -33 -27 -64 -31 -69 -4 -6 -8 -16 -8 -24 0 -7
-9 -34 -21 -60 -33 -77 -44 -104 -104 -262 -20 -52 -40 -104 -45 -115 -27 -60
-50 -119 -50 -126 0 -5 51 -9 113 -9 l112 0 18 53 c34 96 79 207 86 207 18 1
375 2 424 1 l57 -1 19 -42 c42 -92 51 -117 51 -131 0 -9 4 -18 9 -22 5 -3 12
-19 16 -35 l7 -30 119 0 c65 0 119 2 119 5 0 3 -4 13 -9 23 -12 23 -25 56 -51
122 -23 57 -27 67 -58 140 -11 25 -28 68 -38 95 -10 28 -24 61 -31 75 -7 14
-13 30 -13 37 0 6 -6 24 -14 40 -23 45 -46 100 -46 111 0 6 -6 23 -14 39 -16
32 -25 54 -57 133 -12 30 -28 69 -35 87 -8 17 -14 36 -14 41 0 6 -6 23 -14 39
-14 27 -28 59 -55 130 -7 17 -18 33 -24 35 -7 2 -63 2 -124 0z m52 -334 c4
-16 13 -41 21 -56 8 -15 14 -33 14 -40 0 -7 4 -20 9 -30 17 -33 51 -128 51
-142 0 -8 7 -24 15 -34 8 -11 15 -32 15 -48 l0 -28 -160 0 c-119 0 -162 3
-165 13 -8 20 77 269 115 339 6 10 10 24 10 32 0 8 5 27 10 42 l11 27 24 -23
c13 -12 27 -36 30 -52z"/>
<path d="M4774 1661 c-5 -6 -5 -1146 0 -1152 2 -2 200 -3 440 -1 l436 2 0 85
0 85 -327 2 -328 3 -3 159 c-2 112 1 163 9 173 10 12 58 14 278 13 146 -1 274
-1 284 -1 15 1 17 12 17 85 0 65 -3 85 -15 90 -8 3 -135 5 -282 5 -148 0 -274
0 -281 1 -10 0 -12 31 -10 138 l3 137 313 3 c171 1 312 6 313 10 3 46 3 162
-1 162 -137 3 -843 4 -846 1z"/>
<path d="M5884 1658 c-6 -9 -5 -1138 0 -1147 2 -3 47 -5 100 -3 l96 3 -2 365
c-1 235 2 368 8 374 15 15 35 -11 125 -158 93 -151 218 -354 239 -386 8 -13
39 -63 68 -110 l53 -86 112 0 112 0 0 575 c0 316 -3 575 -7 575 -46 3 -181 1
-184 -3 -3 -3 -5 -165 -4 -361 0 -357 -2 -406 -24 -406 -6 0 -51 67 -99 148
-49 81 -124 203 -168 272 -43 69 -82 132 -86 140 -3 8 -30 51 -58 95 -29 44
-55 88 -58 97 -5 14 -23 17 -112 20 -59 2 -109 0 -111 -4z"/>
<path d="M6992 1658 c-4 -4 -6 -43 -4 -87 l4 -81 171 -2 172 -3 3 -488 2 -488
105 3 106 3 -1 476 c0 386 2 478 13 487 8 7 76 13 178 14 l164 3 2 83 c1 45
-1 82 -5 82 -290 4 -905 3 -910 -2z"/>
<path d="M2550 1085 l0 -575 443 0 442 0 -2 78 c-1 42 -2 80 -2 85 -1 4 -147
7 -325 7 l-324 0 -6 23 c-9 36 -7 291 4 307 8 13 55 15 300 18 l291 3 -3 87
-3 87 -290 3 c-216 2 -291 5 -297 15 -9 14 -11 212 -2 245 l6 22 314 0 c202 0
314 4 315 10 0 6 0 43 1 83 l0 72 -431 3 -431 2 0 -575z"/>
<path d="M3550 1658 c0 -2 14 -41 31 -88 17 -47 35 -98 41 -115 5 -16 16 -44
24 -62 8 -17 14 -35 14 -39 0 -8 55 -162 71 -199 7 -18 25 -67 70 -195 23 -68
41 -115 49 -130 4 -9 11 -30 15 -49 4 -18 13 -44 21 -59 8 -15 14 -33 14 -40
0 -7 5 -20 10 -30 6 -9 19 -44 29 -77 l18 -60 127 -3 c115 -2 126 -1 126 15 0
10 7 31 15 47 8 15 15 35 15 43 0 8 6 27 14 41 8 15 22 52 31 82 9 30 23 69
30 85 7 17 23 59 35 95 12 36 25 72 30 80 4 9 11 30 14 48 4 17 12 34 17 37 5
4 9 13 9 22 0 8 6 29 14 46 8 18 16 41 19 52 7 27 35 105 47 130 5 11 18 49
30 85 12 35 24 69 28 75 4 5 18 45 33 88 l26 77 -118 0 c-114 0 -119 -1 -119
-21 0 -12 -6 -35 -13 -52 -8 -18 -38 -106 -67 -197 -30 -91 -57 -169 -62 -174
-4 -6 -8 -19 -8 -30 0 -12 -7 -34 -15 -50 -8 -15 -15 -36 -15 -45 0 -9 -7 -29
-15 -45 -8 -15 -15 -36 -15 -45 0 -9 -7 -29 -15 -44 -8 -15 -17 -43 -21 -61
-3 -19 -15 -49 -26 -67 -19 -32 -21 -32 -34 -14 -8 10 -14 28 -14 40 0 12 -4
25 -8 31 -5 5 -19 41 -31 79 -12 39 -26 79 -31 90 -5 11 -32 90 -60 175 -29
85 -58 169 -66 187 -8 17 -14 38 -14 46 0 8 -7 28 -15 43 -8 16 -15 37 -15 46
0 9 -4 19 -9 22 -5 4 -12 24 -16 46 l-7 40 -119 0 c-65 0 -119 -1 -119 -2z"/>
<path d="M1488 1099 c-10 -6 -18 -15 -18 -21 0 -6 -13 -32 -28 -57 -64 -105
-68 -264 -9 -330 12 -13 63 -57 114 -98 190 -153 330 -350 348 -491 5 -40 11
-52 22 -50 20 4 68 94 83 155 6 27 14 58 17 71 8 35 -25 169 -58 236 -28 53
-88 143 -121 177 -7 8 -58 66 -113 129 -55 63 -105 120 -111 125 -21 18 -93
120 -101 142 -6 17 -12 20 -25 12z"/>
</g>
</svg>
